<svg width="305" height="305" viewBox="0 0 305 305" fill="none" xmlns="http://www.w3.org/2000/svg">
<mask id="mask0_13_806" style="mask-type:alpha" maskUnits="userSpaceOnUse" x="0" y="0" width="305" height="305">
<path d="M0 152.5C0 26.9162 26.9162 0 152.5 0C278.084 0 305 26.9162 305 152.5C305 278.084 278.084 305 152.5 305C26.9162 305 0 278.084 0 152.5Z" fill="#C4C4C4"/>
</mask>
<g mask="url(#mask0_13_806)">
<rect width="305" height="305" transform="translate(-1)" fill="#FACA30"/>
<path d="M89.4032 83.0295V83H88.83H77.2329H74.3948C69.2429 83 65.0626 87.4135 65.0626 92.8528V112.212C65.0626 117.651 69.2429 122.065 74.3948 122.065H77.2329H88.83H89.4032V122.035C94.2895 121.725 98.1691 117.452 98.1691 112.212V92.8528C98.1621 87.6128 94.2895 83.3469 89.4032 83.0295Z" fill="black"/>
<path d="M230.609 83H133.834H118.833H117.938V83.0443C113.198 83.5166 109.494 87.7235 109.494 92.8528V112.212C109.494 117.334 113.198 121.548 117.938 122.02V122.065H118.833H133.834H230.616C235.768 122.065 239.948 117.651 239.948 112.212V92.8528C239.948 87.4135 235.768 83 230.609 83Z" fill="black"/>
<path d="M89.3405 132.301V132.271H88.7673H77.1703H74.3322C69.1803 132.271 65 136.685 65 142.124V161.483C65 166.922 69.1803 171.336 74.3322 171.336H77.1703H88.7673H89.3405V171.306C94.2268 170.996 98.1065 166.723 98.1065 161.483V142.124C98.0995 136.884 94.2268 132.611 89.3405 132.301Z" fill="black"/>
<path d="M230.554 132.264H133.772H118.77H117.875V132.308C113.136 132.78 109.431 136.987 109.431 142.117V161.476C109.431 166.598 113.136 170.812 117.875 171.284V171.328H118.77H133.772H230.554C235.705 171.328 239.886 166.915 239.886 161.476V142.117C239.886 136.677 235.705 132.264 230.554 132.264Z" fill="black"/>
<path d="M89.3405 181.566V181.536H88.7673H77.1703H74.3322C69.1803 181.536 65 185.95 65 191.389V210.748C65 216.187 69.1803 220.601 74.3322 220.601H77.1703H88.7673H89.3405V220.571C94.2268 220.261 98.1065 215.988 98.1065 210.748V191.389C98.0995 186.149 94.2268 181.876 89.3405 181.566Z" fill="black"/>
<path d="M230.554 181.536H133.772H118.77H117.875V181.58C113.136 182.053 109.431 186.26 109.431 191.389V210.748C109.431 215.87 113.136 220.084 117.875 220.556V220.601H118.77H133.772H230.554C235.705 220.601 239.886 216.187 239.886 210.748V191.389C239.886 185.95 235.705 181.536 230.554 181.536Z" fill="black"/>
</g>
</svg>
