<?xml version="1.0" encoding="UTF-8"?>
<svg width="48px" height="48px" viewBox="0 0 48 48" version="1.1" xmlns="http://www.w3.org/2000/svg" xmlns:xlink="http://www.w3.org/1999/xlink">
    <!-- Generator: Sketch 50.2 (55047) - http://www.bohemiancoding.com/sketch -->
    <title>Untitled</title>
    <desc>Created with Sketch.</desc>
    <defs></defs>
    <g id="Page-1" stroke="none" stroke-width="1" fill="none" fill-rule="evenodd">
        <path d="M0,23.8333882 C0,10.6699701 10.6703464,0 23.8326355,0 C36.9956772,0 47.6660237,10.6699701 47.6660237,23.8333882 C47.6660237,36.9953009 36.9956772,47.6664 23.8326355,47.6664 C10.6703464,47.6664 0,36.9953009 0,23.8333882 Z" id="Shape" fill="#284A9F" fill-rule="nonzero"></path>
        <g id="if_Menu_2001884" transform="translate(10.000000, 14.000000)" fill-rule="nonzero">
            <path d="M37.4539272,13.0041155 C37.4539272,12.6397646 33.6051248,8.64493716 25.9075201,1.01963331 L7.14684825,2.9963981 L5.14630995,1 L1,5.54976233 L2.83484955,7.43146054 L1,12.4575891 L2.83484955,14.328954 L1.14523335,19.4914824 C11.6942445,28.4971608 17.6458333,33 19,33 C21.03125,33 26.2482561,30.1658064 26.2482561,30.1658064 C26.2482561,30.1658064 27.5616427,29.4335006 29.1104213,28.1258371 C30.0940536,27.2953374 31.1311871,26.1801229 32.1201869,25.0420619 C34.3546492,22.4708236 35.8211482,19.2098971 36.1900809,18.0331334 C36.9794224,15.5154157 37.4539272,13.5506419 37.4539272,13.0041155 Z" id="Shape" fill="#000000" opacity="0.2"></path>
            <g id="Group" fill="#FFFFFF">
                <g id="Shape">
                    <path d="M4.13515385,0.7161 L4.13515385,0.7119 L4.05,0.7119 L2.32719231,0.7119 L1.90557692,0.7119 C1.14023077,0.7119 0.519230769,1.3398 0.519230769,2.11365 L0.519230769,4.8678 C0.519230769,5.64165 1.14023077,6.26955 1.90557692,6.26955 L2.32719231,6.26955 L4.05,6.26955 L4.13515385,6.26955 L4.13515385,6.26535 C4.86103846,6.22125 5.43738462,5.6133 5.43738462,4.8678 L5.43738462,2.11365 C5.43634615,1.36815 4.86103846,0.76125 4.13515385,0.7161 Z"></path>
                    <path d="M25.1120769,0.7119 L10.7356154,0.7119 L8.50707692,0.7119 L8.37415385,0.7119 L8.37415385,0.7182 C7.67007692,0.7854 7.11969231,1.3839 7.11969231,2.11365 L7.11969231,4.8678 C7.11969231,5.5965 7.67007692,6.19605 8.37415385,6.26325 L8.37415385,6.26955 L8.50707692,6.26955 L10.7356154,6.26955 L25.1131154,6.26955 C25.8784615,6.26955 26.4994615,5.64165 26.4994615,4.8678 L26.4994615,2.11365 C26.4994615,1.3398 25.8784615,0.7119 25.1120769,0.7119 Z"></path>
                </g>
                <g transform="translate(0.000000, 7.350000)" id="Shape">
                    <path d="M4.12580769,0.3759 L4.12580769,0.3717 L4.04065385,0.3717 L2.31784615,0.3717 L1.89623077,0.3717 C1.13088462,0.3717 0.509884615,0.9996 0.509884615,1.77345 L0.509884615,4.5276 C0.509884615,5.30145 1.13088462,5.92935 1.89623077,5.92935 L2.31784615,5.92935 L4.04065385,5.92935 L4.12580769,5.92935 L4.12580769,5.92515 C4.85169231,5.88105 5.42803846,5.2731 5.42803846,4.5276 L5.42803846,1.77345 C5.427,1.02795 4.85169231,0.42 4.12580769,0.3759 Z"></path>
                    <path d="M25.1037692,0.37065 L10.7262692,0.37065 L8.49773077,0.37065 L8.36480769,0.37065 L8.36480769,0.37695 C7.66073077,0.44415 7.11034615,1.04265 7.11034615,1.7724 L7.11034615,4.52655 C7.11034615,5.25525 7.66073077,5.8548 8.36480769,5.922 L8.36480769,5.9283 L8.49773077,5.9283 L10.7262692,5.9283 L25.1037692,5.9283 C25.8691154,5.9283 26.4901154,5.3004 26.4901154,4.52655 L26.4901154,1.7724 C26.4901154,0.99855 25.8691154,0.37065 25.1037692,0.37065 Z"></path>
                </g>
                <g transform="translate(0.000000, 14.700000)" id="Shape">
                    <path d="M4.12580769,0.03465 L4.12580769,0.03045 L4.04065385,0.03045 L2.31784615,0.03045 L1.89623077,0.03045 C1.13088462,0.03045 0.509884615,0.65835 0.509884615,1.4322 L0.509884615,4.18635 C0.509884615,4.9602 1.13088462,5.5881 1.89623077,5.5881 L2.31784615,5.5881 L4.04065385,5.5881 L4.12580769,5.5881 L4.12580769,5.5839 C4.85169231,5.5398 5.42803846,4.93185 5.42803846,4.18635 L5.42803846,1.4322 C5.427,0.6867 4.85169231,0.07875 4.12580769,0.03465 Z"></path>
                    <path d="M25.1037692,0.03045 L10.7262692,0.03045 L8.49773077,0.03045 L8.36480769,0.03045 L8.36480769,0.03675 C7.66073077,0.10395 7.11034615,0.70245 7.11034615,1.4322 L7.11034615,4.18635 C7.11034615,4.91505 7.66073077,5.5146 8.36480769,5.5818 L8.36480769,5.5881 L8.49773077,5.5881 L10.7262692,5.5881 L25.1037692,5.5881 C25.8691154,5.5881 26.4901154,4.9602 26.4901154,4.18635 L26.4901154,1.4322 C26.4901154,0.65835 25.8691154,0.03045 25.1037692,0.03045 Z"></path>
                </g>
            </g>
        </g>
    </g>
</svg>