<?xml version="1.0" encoding="UTF-8"?>
<svg width="128px" height="128px" viewBox="0 0 128 128" version="1.1" xmlns="http://www.w3.org/2000/svg" xmlns:xlink="http://www.w3.org/1999/xlink">
    <!-- Generator: Sketch 50.2 (55047) - http://www.bohemiancoding.com/sketch -->
    <title>Untitled</title>
    <desc>Created with Sketch.</desc>
    <defs></defs>
    <g id="Page-1" stroke="none" stroke-width="1" fill="none" fill-rule="evenodd">
        <g id="if_Menu2_1891012" fill-rule="nonzero">
            <circle id="Oval" fill="#284A9F" cx="64" cy="64" r="64"></circle>
            <g id="Group" transform="translate(27.000000, 30.000000)" fill="#FFFFFF">
                <path d="M74.0576923,0 L26.9423077,0 C26.3769231,0 26,0.371428571 26,0.928571429 L26,12.0714286 C26,12.6285714 26.3769231,13 26.9423077,13 L74.0576923,13 C74.6230769,13 75,12.6285714 75,12.0714286 L75,0.928571429 C75,0.371428571 74.6230769,0 74.0576923,0 Z" id="Shape"></path>
                <path d="M74.0576923,26 L26.9423077,26 C26.3769231,26 26,26.3714286 26,26.9285714 L26,38.0714286 C26,38.6285714 26.3769231,39 26.9423077,39 L74.0576923,39 C74.6230769,39 75,38.6285714 75,38.0714286 L75,26.9285714 C75,26.3714286 74.6230769,26 74.0576923,26 Z" id="Shape"></path>
                <path d="M74.0576923,53 L26.9423077,53 C26.3769231,53 26,53.3714286 26,53.9285714 L26,65.0714286 C26,65.6285714 26.3769231,66 26.9423077,66 L74.0576923,66 C74.6230769,66 75,65.6285714 75,65.0714286 L75,53.9285714 C75,53.3714286 74.6230769,53 74.0576923,53 Z" id="Shape"></path>
                <path d="M12.0714286,0 L0.928571429,0 C0.371428571,0 0,0.371428571 0,0.928571429 L0,12.0714286 C0,12.6285714 0.371428571,13 0.928571429,13 L12.0714286,13 C12.6285714,13 13,12.6285714 13,12.0714286 L13,0.928571429 C13,0.371428571 12.6285714,0 12.0714286,0 Z" id="Shape"></path>
                <path d="M12.0714286,26 L0.928571429,26 C0.371428571,26 0,26.3714286 0,26.9285714 L0,38.0714286 C0,38.6285714 0.371428571,39 0.928571429,39 L12.0714286,39 C12.6285714,39 13,38.6285714 13,38.0714286 L13,26.9285714 C13,26.3714286 12.6285714,26 12.0714286,26 Z" id="Shape"></path>
                <path d="M12.0714286,53 L0.928571429,53 C0.371428571,53 0,53.3714286 0,53.9285714 L0,65.0714286 C0,65.6285714 0.371428571,66 0.928571429,66 L12.0714286,66 C12.6285714,66 13,65.6285714 13,65.0714286 L13,53.9285714 C13,53.3714286 12.6285714,53 12.0714286,53 Z" id="Shape"></path>
            </g>
        </g>
    </g>
</svg>